<svg width="168" height="36" viewBox="0 0 168 36" fill="none" xmlns="http://www.w3.org/2000/svg">
<path d="M10.7557 14.7784C10.6989 14.1534 10.446 13.6676 9.99716 13.321C9.55398 12.9688 8.92045 12.7926 8.09659 12.7926C7.55114 12.7926 7.09659 12.8636 6.73295 13.0057C6.36932 13.1477 6.09659 13.3438 5.91477 13.5938C5.73295 13.8381 5.6392 14.1193 5.63352 14.4375C5.62216 14.6989 5.6733 14.929 5.78693 15.1278C5.90625 15.3267 6.0767 15.5028 6.2983 15.6562C6.52557 15.804 6.7983 15.9347 7.11648 16.0483C7.43466 16.1619 7.79261 16.2614 8.19034 16.3466L9.69034 16.6875C10.554 16.875 11.3153 17.125 11.9744 17.4375C12.6392 17.75 13.196 18.1222 13.6449 18.554C14.0994 18.9858 14.4432 19.483 14.6761 20.0455C14.9091 20.608 15.0284 21.2386 15.0341 21.9375C15.0284 23.0398 14.75 23.9858 14.1989 24.7756C13.6477 25.5653 12.8551 26.1705 11.821 26.5909C10.7926 27.0114 9.55114 27.2216 8.09659 27.2216C6.63636 27.2216 5.36364 27.0028 4.27841 26.5653C3.19318 26.1278 2.34943 25.4631 1.74716 24.571C1.14489 23.679 0.835227 22.5511 0.818182 21.1875H4.85795C4.89205 21.75 5.04261 22.2188 5.30966 22.5938C5.5767 22.9688 5.94318 23.2528 6.40909 23.446C6.88068 23.6392 7.42614 23.7358 8.04545 23.7358C8.61364 23.7358 9.09659 23.6591 9.49432 23.5057C9.89773 23.3523 10.2074 23.1392 10.4233 22.8665C10.6392 22.5937 10.75 22.2812 10.7557 21.929C10.75 21.5994 10.6477 21.3182 10.4489 21.0852C10.25 20.8466 9.94318 20.642 9.52841 20.4716C9.11932 20.2955 8.59659 20.1335 7.96023 19.9858L6.13636 19.5597C4.625 19.2131 3.43466 18.6534 2.56534 17.8807C1.69602 17.1023 1.2642 16.0511 1.26989 14.7273C1.2642 13.6477 1.55398 12.7017 2.1392 11.8892C2.72443 11.0767 3.53409 10.4432 4.56818 9.98864C5.60227 9.53409 6.78125 9.30682 8.10511 9.30682C9.45739 9.30682 10.6307 9.53693 11.625 9.99716C12.625 10.4517 13.4006 11.0909 13.9517 11.9148C14.5028 12.7386 14.7841 13.6932 14.7955 14.7784H10.7557ZM20.8551 27.2216C20.0199 27.2216 19.2784 27.0824 18.6307 26.804C17.9886 26.5199 17.4801 26.0937 17.1051 25.5256C16.7358 24.9517 16.5511 24.233 16.5511 23.3693C16.5511 22.642 16.679 22.0284 16.9347 21.5284C17.1903 21.0284 17.5426 20.6222 17.9915 20.3097C18.4403 19.9972 18.9574 19.7614 19.5426 19.6023C20.1278 19.4375 20.7528 19.3267 21.4176 19.2699C22.1619 19.2017 22.7614 19.1307 23.2159 19.0568C23.6705 18.9773 24 18.8665 24.2045 18.7244C24.4148 18.5767 24.5199 18.3693 24.5199 18.1023V18.0597C24.5199 17.6222 24.3693 17.2841 24.0682 17.0455C23.767 16.8068 23.3608 16.6875 22.8494 16.6875C22.2983 16.6875 21.8551 16.8068 21.5199 17.0455C21.1847 17.2841 20.9716 17.6136 20.8807 18.0341L17.0369 17.8977C17.1506 17.1023 17.4432 16.392 17.9148 15.767C18.392 15.1364 19.0455 14.642 19.875 14.2841C20.7102 13.9205 21.7131 13.7386 22.8835 13.7386C23.7188 13.7386 24.4886 13.8381 25.1932 14.0369C25.8977 14.2301 26.5114 14.5142 27.0341 14.8892C27.5568 15.2585 27.9602 15.7131 28.2443 16.2528C28.5341 16.7926 28.679 17.4091 28.679 18.1023V27H24.7585V25.1761H24.6562C24.4233 25.6193 24.125 25.9943 23.7614 26.3011C23.4034 26.608 22.9801 26.8381 22.4915 26.9915C22.0085 27.1449 21.4631 27.2216 20.8551 27.2216ZM22.142 24.4943C22.5909 24.4943 22.9943 24.4034 23.3523 24.2216C23.7159 24.0398 24.0057 23.7898 24.2216 23.4716C24.4375 23.1477 24.5455 22.7727 24.5455 22.3466V21.1023C24.4261 21.1648 24.2813 21.2216 24.1108 21.2727C23.946 21.3239 23.7642 21.3722 23.5653 21.4176C23.3665 21.4631 23.1619 21.5028 22.9517 21.5369C22.7415 21.571 22.5398 21.6023 22.3466 21.6307C21.9545 21.6932 21.6193 21.7898 21.3409 21.9205C21.0682 22.0511 20.858 22.2216 20.7102 22.4318C20.5682 22.6364 20.4972 22.8807 20.4972 23.1648C20.4972 23.5966 20.6506 23.9261 20.9574 24.1534C21.2699 24.3807 21.6648 24.4943 22.142 24.4943ZM34.9176 27.2216C34.0824 27.2216 33.3409 27.0824 32.6932 26.804C32.0511 26.5199 31.5426 26.0937 31.1676 25.5256C30.7983 24.9517 30.6136 24.233 30.6136 23.3693C30.6136 22.642 30.7415 22.0284 30.9972 21.5284C31.2528 21.0284 31.6051 20.6222 32.054 20.3097C32.5028 19.9972 33.0199 19.7614 33.6051 19.6023C34.1903 19.4375 34.8153 19.3267 35.4801 19.2699C36.2244 19.2017 36.8239 19.1307 37.2784 19.0568C37.733 18.9773 38.0625 18.8665 38.267 18.7244C38.4773 18.5767 38.5824 18.3693 38.5824 18.1023V18.0597C38.5824 17.6222 38.4318 17.2841 38.1307 17.0455C37.8295 16.8068 37.4233 16.6875 36.9119 16.6875C36.3608 16.6875 35.9176 16.8068 35.5824 17.0455C35.2472 17.2841 35.0341 17.6136 34.9432 18.0341L31.0994 17.8977C31.2131 17.1023 31.5057 16.392 31.9773 15.767C32.4545 15.1364 33.108 14.642 33.9375 14.2841C34.7727 13.9205 35.7756 13.7386 36.946 13.7386C37.7813 13.7386 38.5511 13.8381 39.2557 14.0369C39.9602 14.2301 40.5739 14.5142 41.0966 14.8892C41.6193 15.2585 42.0227 15.7131 42.3068 16.2528C42.5966 16.7926 42.7415 17.4091 42.7415 18.1023V27H38.821V25.1761H38.7188C38.4858 25.6193 38.1875 25.9943 37.8239 26.3011C37.4659 26.608 37.0426 26.8381 36.554 26.9915C36.071 27.1449 35.5256 27.2216 34.9176 27.2216ZM36.2045 24.4943C36.6534 24.4943 37.0568 24.4034 37.4148 24.2216C37.7784 24.0398 38.0682 23.7898 38.2841 23.4716C38.5 23.1477 38.608 22.7727 38.608 22.3466V21.1023C38.4886 21.1648 38.3438 21.2216 38.1733 21.2727C38.0085 21.3239 37.8267 21.3722 37.6278 21.4176C37.429 21.4631 37.2244 21.5028 37.0142 21.5369C36.804 21.571 36.6023 21.6023 36.4091 21.6307C36.017 21.6932 35.6818 21.7898 35.4034 21.9205C35.1307 22.0511 34.9205 22.2216 34.7727 22.4318C34.6307 22.6364 34.5597 22.8807 34.5597 23.1648C34.5597 23.5966 34.7131 23.9261 35.0199 24.1534C35.3324 24.3807 35.7273 24.4943 36.2045 24.4943ZM54.7244 14.7784C54.6676 14.1534 54.4148 13.6676 53.9659 13.321C53.5227 12.9688 52.8892 12.7926 52.0653 12.7926C51.5199 12.7926 51.0653 12.8636 50.7017 13.0057C50.3381 13.1477 50.0653 13.3438 49.8835 13.5938C49.7017 13.8381 49.608 14.1193 49.6023 14.4375C49.5909 14.6989 49.642 14.929 49.7557 15.1278C49.875 15.3267 50.0455 15.5028 50.267 15.6562C50.4943 15.804 50.767 15.9347 51.0852 16.0483C51.4034 16.1619 51.7614 16.2614 52.1591 16.3466L53.6591 16.6875C54.5227 16.875 55.2841 17.125 55.9432 17.4375C56.608 17.75 57.1648 18.1222 57.6136 18.554C58.0682 18.9858 58.4119 19.483 58.6449 20.0455C58.8778 20.608 58.9972 21.2386 59.0028 21.9375C58.9972 23.0398 58.7188 23.9858 58.1676 24.7756C57.6165 25.5653 56.8239 26.1705 55.7898 26.5909C54.7614 27.0114 53.5199 27.2216 52.0653 27.2216C50.6051 27.2216 49.3324 27.0028 48.2472 26.5653C47.1619 26.1278 46.3182 25.4631 45.7159 24.571C45.1136 23.679 44.804 22.5511 44.7869 21.1875H48.8267C48.8608 21.75 49.0114 22.2188 49.2784 22.5938C49.5455 22.9688 49.9119 23.2528 50.3778 23.446C50.8494 23.6392 51.3949 23.7358 52.0142 23.7358C52.5824 23.7358 53.0653 23.6591 53.4631 23.5057C53.8665 23.3523 54.1761 23.1392 54.392 22.8665C54.608 22.5937 54.7188 22.2812 54.7244 21.929C54.7188 21.5994 54.6165 21.3182 54.4176 21.0852C54.2188 20.8466 53.9119 20.642 53.4972 20.4716C53.0881 20.2955 52.5653 20.1335 51.929 19.9858L50.1051 19.5597C48.5938 19.2131 47.4034 18.6534 46.5341 17.8807C45.6648 17.1023 45.233 16.0511 45.2386 14.7273C45.233 13.6477 45.5227 12.7017 46.108 11.8892C46.6932 11.0767 47.5028 10.4432 48.5369 9.98864C49.571 9.53409 50.75 9.30682 52.0739 9.30682C53.4261 9.30682 54.5994 9.53693 55.5938 9.99716C56.5938 10.4517 57.3693 11.0909 57.9205 11.9148C58.4716 12.7386 58.7528 13.6932 58.7642 14.7784H54.7244ZM66.2898 27V9.54545H73.5C74.8068 9.54545 75.9347 9.80114 76.8835 10.3125C77.8381 10.8182 78.5739 11.5256 79.0909 12.4347C79.608 13.3381 79.8665 14.3892 79.8665 15.5881C79.8665 16.7926 79.6023 17.8466 79.0739 18.75C78.5511 19.6477 77.804 20.3437 76.8324 20.8381C75.8608 21.3324 74.7074 21.5795 73.3722 21.5795H68.9233V18.2557H72.5881C73.2244 18.2557 73.7557 18.1449 74.1818 17.9233C74.6136 17.7017 74.9403 17.392 75.1619 16.9943C75.3835 16.5909 75.4943 16.1222 75.4943 15.5881C75.4943 15.0483 75.3835 14.5824 75.1619 14.1903C74.9403 13.7926 74.6136 13.4858 74.1818 13.2699C73.75 13.054 73.2188 12.946 72.5881 12.946H70.5085V27H66.2898ZM86.1136 9.54545V27H81.946V9.54545H86.1136ZM92.4567 27.2216C91.6214 27.2216 90.88 27.0824 90.2322 26.804C89.5902 26.5199 89.0817 26.0937 88.7067 25.5256C88.3374 24.9517 88.1527 24.233 88.1527 23.3693C88.1527 22.642 88.2805 22.0284 88.5362 21.5284C88.7919 21.0284 89.1442 20.6222 89.593 20.3097C90.0419 19.9972 90.5589 19.7614 91.1442 19.6023C91.7294 19.4375 92.3544 19.3267 93.0192 19.2699C93.7635 19.2017 94.3629 19.1307 94.8175 19.0568C95.272 18.9773 95.6016 18.8665 95.8061 18.7244C96.0163 18.5767 96.1214 18.3693 96.1214 18.1023V18.0597C96.1214 17.6222 95.9709 17.2841 95.6697 17.0455C95.3686 16.8068 94.9624 16.6875 94.451 16.6875C93.8999 16.6875 93.4567 16.8068 93.1214 17.0455C92.7862 17.2841 92.5732 17.6136 92.4822 18.0341L88.6385 17.8977C88.7521 17.1023 89.0447 16.392 89.5163 15.767C89.9936 15.1364 90.647 14.642 91.4766 14.2841C92.3118 13.9205 93.3146 13.7386 94.4851 13.7386C95.3203 13.7386 96.0902 13.8381 96.7947 14.0369C97.4993 14.2301 98.1129 14.5142 98.6357 14.8892C99.1584 15.2585 99.5618 15.7131 99.8459 16.2528C100.136 16.7926 100.281 17.4091 100.281 18.1023V27H96.3601V25.1761H96.2578C96.0249 25.6193 95.7266 25.9943 95.3629 26.3011C95.005 26.608 94.5817 26.8381 94.093 26.9915C93.6101 27.1449 93.0646 27.2216 92.4567 27.2216ZM93.7436 24.4943C94.1925 24.4943 94.5959 24.4034 94.9538 24.2216C95.3175 24.0398 95.6072 23.7898 95.8232 23.4716C96.0391 23.1477 96.147 22.7727 96.147 22.3466V21.1023C96.0277 21.1648 95.8828 21.2216 95.7124 21.2727C95.5476 21.3239 95.3658 21.3722 95.1669 21.4176C94.968 21.4631 94.7635 21.5028 94.5533 21.5369C94.343 21.571 94.1413 21.6023 93.9482 21.6307C93.5561 21.6932 93.2209 21.7898 92.9425 21.9205C92.6697 22.0511 92.4595 22.2216 92.3118 22.4318C92.1697 22.6364 92.0987 22.8807 92.0987 23.1648C92.0987 23.5966 92.2521 23.9261 92.5589 24.1534C92.8714 24.3807 93.2663 24.4943 93.7436 24.4943ZM110.218 13.9091V16.9773H101.96V13.9091H110.218ZM103.69 10.7727H107.857V22.8835C107.857 23.1392 107.897 23.3466 107.977 23.5057C108.062 23.6591 108.184 23.7699 108.343 23.8381C108.502 23.9006 108.692 23.9318 108.914 23.9318C109.073 23.9318 109.241 23.9176 109.417 23.8892C109.599 23.8551 109.735 23.8267 109.826 23.804L110.457 26.8125C110.258 26.8693 109.977 26.9403 109.613 27.0256C109.255 27.1108 108.826 27.1648 108.326 27.1875C107.349 27.233 106.511 27.1193 105.812 26.8466C105.119 26.5682 104.587 26.1364 104.218 25.5511C103.854 24.9659 103.678 24.2301 103.69 23.3438V10.7727ZM119.785 13.9091V16.9773H111.364V13.9091H119.785ZM113.12 27V13.2443C113.12 12.233 113.31 11.3949 113.691 10.7301C114.072 10.0597 114.6 9.55966 115.276 9.23011C115.952 8.89489 116.734 8.72727 117.62 8.72727C118.2 8.72727 118.745 8.77273 119.256 8.86364C119.773 8.94886 120.157 9.02557 120.407 9.09375L119.742 12.1449C119.589 12.0937 119.401 12.0511 119.18 12.017C118.964 11.983 118.759 11.9659 118.566 11.9659C118.077 11.9659 117.742 12.0739 117.56 12.2898C117.379 12.5057 117.288 12.8011 117.288 13.1761V27H113.12ZM127.479 27.2472C126.104 27.2472 124.922 26.9659 123.933 26.4034C122.95 25.8352 122.192 25.0455 121.658 24.0341C121.129 23.017 120.865 21.8381 120.865 20.4972C120.865 19.1506 121.129 17.9716 121.658 16.9602C122.192 15.9432 122.95 15.1534 123.933 14.5909C124.922 14.0227 126.104 13.7386 127.479 13.7386C128.854 13.7386 130.033 14.0227 131.016 14.5909C132.004 15.1534 132.763 15.9432 133.291 16.9602C133.825 17.9716 134.092 19.1506 134.092 20.4972C134.092 21.8381 133.825 23.017 133.291 24.0341C132.763 25.0455 132.004 25.8352 131.016 26.4034C130.033 26.9659 128.854 27.2472 127.479 27.2472ZM127.504 24.1023C128.004 24.1023 128.428 23.9489 128.774 23.642C129.121 23.3352 129.385 22.9091 129.567 22.3636C129.754 21.8182 129.848 21.1875 129.848 20.4716C129.848 19.7443 129.754 19.108 129.567 18.5625C129.385 18.017 129.121 17.5909 128.774 17.2841C128.428 16.9773 128.004 16.8239 127.504 16.8239C126.987 16.8239 126.55 16.9773 126.192 17.2841C125.839 17.5909 125.57 18.017 125.382 18.5625C125.2 19.108 125.109 19.7443 125.109 20.4716C125.109 21.1875 125.2 21.8182 125.382 22.3636C125.57 22.9091 125.839 23.3352 126.192 23.642C126.55 23.9489 126.987 24.1023 127.504 24.1023ZM136.227 27V13.9091H140.276V16.2955H140.412C140.651 15.4318 141.04 14.7898 141.58 14.3693C142.119 13.9432 142.747 13.7301 143.463 13.7301C143.656 13.7301 143.855 13.7443 144.06 13.7727C144.264 13.7955 144.455 13.8324 144.631 13.8835V17.5057C144.432 17.4375 144.17 17.3835 143.847 17.3438C143.528 17.304 143.244 17.2841 142.994 17.2841C142.5 17.2841 142.054 17.3949 141.656 17.6165C141.264 17.8324 140.955 18.1364 140.727 18.5284C140.506 18.9148 140.395 19.3693 140.395 19.892V27H136.227ZM146.329 27V13.9091H150.292V16.3125H150.437C150.71 15.517 151.17 14.8892 151.817 14.429C152.465 13.9688 153.238 13.7386 154.136 13.7386C155.045 13.7386 155.823 13.9716 156.471 14.4375C157.119 14.9034 157.531 15.5284 157.707 16.3125H157.843C158.087 15.5341 158.565 14.9119 159.275 14.446C159.985 13.9744 160.823 13.7386 161.789 13.7386C163.028 13.7386 164.033 14.1364 164.806 14.9318C165.579 15.7216 165.965 16.8068 165.965 18.1875V27H161.798V19.142C161.798 18.4886 161.63 17.9915 161.295 17.6506C160.96 17.304 160.525 17.1307 159.991 17.1307C159.417 17.1307 158.965 17.3182 158.636 17.6932C158.312 18.0625 158.15 18.5597 158.15 19.1847V27H154.144V19.0994C154.144 18.4915 153.979 18.0114 153.65 17.6591C153.32 17.3068 152.886 17.1307 152.346 17.1307C151.982 17.1307 151.661 17.2187 151.383 17.3949C151.104 17.5653 150.886 17.8097 150.727 18.1278C150.573 18.446 150.496 18.821 150.496 19.2528V27H146.329Z" fill="#343E5E"/>
</svg>
