<svg xmlns="http://www.w3.org/2000/svg" width="48" height="49" viewBox="0 0 48 49" fill="none">
  <path fill-rule="evenodd" clip-rule="evenodd" d="M24.0111 33.8671C23.1831 33.8671 22.5031 33.1951 22.5031 32.3671C22.5031 31.5392 23.1651 30.8671 23.9931 30.8671H24.0111C24.8391 30.8671 25.5111 31.5392 25.5111 32.3671C25.5111 33.1951 24.8391 33.8671 24.0111 33.8671ZM22.5011 17.5771C22.5011 16.7491 23.1731 16.0771 24.0011 16.0771C24.8291 16.0771 25.5011 16.7491 25.5011 17.5771V25.3671C25.5011 26.1951 24.8291 26.8671 24.0011 26.8671C23.1731 26.8671 22.5011 26.1951 22.5011 25.3671V17.5771ZM38.1211 20.8931L37.6971 20.1451C31.7251 9.52515 28.0131 5.57715 24.0011 5.57715C19.9891 5.57715 16.2771 9.52515 10.3051 20.1451L9.88314 20.8931C7.73714 24.6571 3.27714 32.4871 4.10514 37.1591C5.08114 42.6852 10.7711 43.5771 24.0011 43.5771C37.2331 43.5771 42.9231 42.6852 43.8971 37.1591C44.7251 32.4871 40.2651 24.6571 38.1211 20.8931Z" fill="#CC7171"/>
</svg>
