<svg xmlns="http://www.w3.org/2000/svg" width="24" height="25" viewBox="0 0 24 25" fill="none">
  <path d="M2.68936 6.8978C2.52619 6.51708 2.08528 6.34071 1.70456 6.50388C1.32384 6.66705 1.14747 7.10795 1.31064 7.48868L2.68936 6.8978ZM15.5872 13.5219L15.3125 12.8241L15.5872 13.5219ZM9.04145 13.931C9.26736 13.5838 9.16904 13.1192 8.82185 12.8933C8.47466 12.6674 8.01008 12.7657 7.78417 13.1129L9.04145 13.931ZM6.37136 15.2842C6.14545 15.6314 6.24377 16.096 6.59096 16.3219C6.93815 16.5478 7.40273 16.4495 7.62864 16.1023L6.37136 15.2842ZM22.6894 7.48868C22.8525 7.10795 22.6762 6.66705 22.2954 6.50388C21.9147 6.34071 21.4738 6.51708 21.3106 6.8978L22.6894 7.48868ZM19 11.3221L18.4867 10.7752V10.7752L19 11.3221ZM19.9697 13.3524C20.2626 13.6453 20.7374 13.6453 21.0303 13.3524C21.3232 13.0595 21.3232 12.5846 21.0303 12.2917L19.9697 13.3524ZM11.25 16.6932C11.25 17.1075 11.5858 17.4432 12 17.4432C12.4142 17.4432 12.75 17.1075 12.75 16.6932H11.25ZM16.3714 16.1023C16.5973 16.4495 17.0619 16.5478 17.409 16.3219C17.7562 16.096 17.8545 15.6314 17.6286 15.2842L16.3714 16.1023ZM5.53033 11.8524C5.82322 11.5595 5.82322 11.0846 5.53033 10.7917C5.23744 10.4989 4.76256 10.4989 4.46967 10.7917L5.53033 11.8524ZM2.96967 12.2917C2.67678 12.5846 2.67678 13.0595 2.96967 13.3524C3.26256 13.6453 3.73744 13.6453 4.03033 13.3524L2.96967 12.2917ZM12 13.4432C8.77611 13.4432 6.46133 11.8378 4.9246 10.1829C4.15645 9.35567 3.59325 8.52607 3.22259 7.90337C3.03769 7.59273 2.90187 7.33555 2.8134 7.15861C2.76919 7.07019 2.73689 7.00198 2.71627 6.95735C2.70597 6.93504 2.69859 6.91864 2.69411 6.90857C2.69187 6.90353 2.69036 6.90008 2.68957 6.89827C2.68917 6.89736 2.68896 6.89687 2.68892 6.89678C2.68891 6.89674 2.68893 6.89681 2.68901 6.89698C2.68904 6.89706 2.68913 6.89727 2.68915 6.89731C2.68925 6.89754 2.68936 6.8978 2 7.19324C1.31064 7.48868 1.31077 7.48899 1.31092 7.48933C1.31098 7.48947 1.31114 7.48984 1.31127 7.49014C1.31152 7.49073 1.31183 7.49143 1.31218 7.49224C1.31287 7.49385 1.31376 7.49589 1.31483 7.49835C1.31698 7.50327 1.31988 7.50986 1.32353 7.51807C1.33083 7.53449 1.34115 7.55739 1.35453 7.58635C1.38127 7.64426 1.42026 7.72644 1.47176 7.82943C1.57469 8.0353 1.72794 8.32499 1.93366 8.6706C2.34425 9.3604 2.96855 10.2808 3.8254 11.2036C5.53867 13.0486 8.22389 14.9432 12 14.9432V13.4432ZM15.3125 12.8241C14.3421 13.206 13.2417 13.4432 12 13.4432V14.9432C13.4382 14.9432 14.7246 14.6675 15.8619 14.2198L15.3125 12.8241ZM7.78417 13.1129L6.37136 15.2842L7.62864 16.1023L9.04145 13.931L7.78417 13.1129ZM22 7.19324C21.3106 6.8978 21.3107 6.89765 21.3108 6.8975C21.3108 6.89747 21.3108 6.89733 21.3109 6.89726C21.3109 6.89711 21.311 6.897 21.311 6.89692C21.3111 6.89676 21.3111 6.89673 21.3111 6.89683C21.311 6.89704 21.3107 6.89776 21.3101 6.899C21.309 6.90147 21.307 6.90599 21.3041 6.91248C21.2983 6.92546 21.2889 6.94633 21.2758 6.97448C21.2495 7.03081 21.2086 7.11619 21.1526 7.22591C21.0406 7.4455 20.869 7.76154 20.6354 8.13644C20.1669 8.8884 19.4563 9.8652 18.4867 10.7752L19.5133 11.8689C20.6023 10.8467 21.3917 9.75911 21.9085 8.9297C22.1676 8.51392 22.36 8.16004 22.4889 7.90739C22.5533 7.78098 22.602 7.67966 22.6353 7.60831C22.6519 7.57263 22.6647 7.54441 22.6737 7.52428C22.6782 7.51421 22.6818 7.50616 22.6844 7.5002C22.6857 7.49722 22.6867 7.49476 22.6876 7.49284C22.688 7.49188 22.6883 7.49105 22.6886 7.49036C22.6888 7.49001 22.6889 7.4897 22.689 7.48942C22.6891 7.48928 22.6892 7.48909 22.6892 7.48902C22.6893 7.48884 22.6894 7.48868 22 7.19324ZM18.4867 10.7752C17.6277 11.5815 16.5739 12.3276 15.3125 12.8241L15.8619 14.2198C17.3355 13.6398 18.5466 12.7763 19.5133 11.8689L18.4867 10.7752ZM18.4697 11.8524L19.9697 13.3524L21.0303 12.2917L19.5303 10.7917L18.4697 11.8524ZM11.25 14.1932V16.6932H12.75V14.1932H11.25ZM14.9586 13.931L16.3714 16.1023L17.6286 15.2842L16.2158 13.1129L14.9586 13.931ZM4.46967 10.7917L2.96967 12.2917L4.03033 13.3524L5.53033 11.8524L4.46967 10.7917Z" fill="black"/>
</svg>
