<svg xmlns="http://www.w3.org/2000/svg" width="30" height="30" viewBox="0 0 30 30" fill="none">
  <rect width="30" height="30" rx="15" fill="#F0F0F0"/>
  <path d="M19.492 9.375L15 13.867L10.508 9.375L9.375 10.508L13.867 15L9.375 19.492L10.508 20.625L15 16.133L19.492 20.625L20.625 19.492L16.133 15L20.625 10.508L19.492 9.375Z" fill="black"/>
  <path fill-rule="evenodd" clip-rule="evenodd" d="M10.5084 8.78564L15.0004 13.2776L19.4924 8.78564L21.2146 10.5079L16.7227 14.9999L21.2146 19.4919L19.4924 21.2142L15.0004 16.7222L10.5084 21.2142L8.78613 19.4919L13.2781 14.9999L8.78613 10.5079L10.5084 8.78564ZM9.96464 10.5079L14.4566 14.9999L9.96464 19.4919L10.5084 20.0356L15.0004 15.5437L19.4924 20.0356L20.0361 19.4919L15.5442 14.9999L20.0361 10.5079L19.4924 9.96416L15.0004 14.4561L10.5084 9.96416L9.96464 10.5079Z" fill="black"/>
</svg>
