<svg xmlns="http://www.w3.org/2000/svg" width="200" height="200" viewBox="0 0 200 200" fill="none">
  <ellipse opacity="0.1" cx="100" cy="193.999" rx="100" ry="6" fill="#C4C7D2"/>
  <path d="M139.695 158.863C139.137 156.986 140.272 155.149 140.215 153.224C140.111 149.948 140.087 146.663 140.206 143.387C140.488 135.541 139.222 127.732 139.671 119.893C139.987 114.37 135.266 109.305 129.105 109.339C109.558 109.445 90.0106 109.457 70.4664 109.333C64.2634 109.293 59.6908 114.324 59.7546 120.054C59.9337 136.273 59.8062 152.499 59.8001 168.721C60.7869 169.344 61.7403 170.033 63.0215 170.428C63.0215 169.805 63.0215 169.292 63.0215 168.782C63.0215 154.478 63.0185 140.172 63.0215 125.868C63.0215 120.063 67.1326 115.93 72.9197 115.927C90.8122 115.918 108.705 115.924 126.594 115.927C127.247 115.927 127.915 115.927 128.549 116.061C133.374 117.069 136.441 120.846 136.444 125.786C136.453 139.917 136.444 154.044 136.444 168.175C136.444 168.57 136.471 168.964 136.438 169.356C136.362 170.227 136.544 170.625 137.464 170.045C138.35 169.487 139.27 168.982 140.175 168.454C139.935 165.263 140.634 162.045 139.686 158.863H139.695Z" fill="#C4C7D2"/>
  <path d="M86.4116 139.283C84.0646 139.283 82.2034 141.08 82.1761 143.366C82.1488 145.741 84.0009 147.681 86.3145 147.702C88.7009 147.726 90.5773 145.887 90.5834 143.518C90.5895 141.053 88.8436 139.283 86.4086 139.283H86.4116Z" fill="#C4C7D2"/>
  <path d="M113.117 139.283C110.667 139.265 108.9 141.014 108.891 143.467C108.882 145.85 110.725 147.702 113.105 147.702C115.431 147.702 117.295 145.796 117.295 143.421C117.295 141.126 115.452 139.301 113.114 139.283H113.117Z" fill="#C4C7D2"/>
  <path d="M89.6783 130.211C89.2593 130.326 88.8646 130.518 88.4578 130.669C85.5248 131.772 82.5978 132.895 79.6527 133.961C78.8997 134.234 78.5718 134.665 78.7206 135.424C78.8299 135.98 79.2337 136.201 80.0049 136.15C80.7852 135.861 81.7659 135.509 82.7405 135.142C85.3062 134.176 87.8657 133.195 90.4343 132.239C91.157 131.969 91.5608 131.51 91.3148 130.751C91.0416 129.907 90.3311 130.029 89.6783 130.211Z" fill="#C4C7D2"/>
  <path d="M119.847 133.972C116.577 132.781 113.325 131.534 110.064 130.313C109.782 130.207 109.484 130.143 109.347 130.103C108.637 130.076 108.23 130.28 108.121 130.844C107.996 131.491 108.276 131.95 108.889 132.183C112.311 133.471 115.73 134.758 119.155 136.036C119.832 136.288 120.506 136.3 120.736 135.45C120.937 134.716 120.609 134.251 119.844 133.975L119.847 133.972Z" fill="#C4C7D2"/>
  <path d="M102.222 157.242C100.573 157.2 98.9216 157.2 97.2698 157.242C96.6201 157.258 96.0705 157.549 96.0645 158.332C96.0614 159.11 96.5958 159.401 97.2516 159.447C98.0745 159.501 98.9003 159.459 99.7262 159.459C100.552 159.459 101.378 159.498 102.201 159.447C102.853 159.407 103.397 159.128 103.406 158.351C103.415 157.567 102.875 157.261 102.222 157.245V157.242Z" fill="#C4C7D2"/>
  <path d="M95.2194 55.3538C95.4866 61.0315 95.7326 66.7062 96.0362 72.3809C96.1394 74.3393 97.5998 75.742 99.4793 75.8665C101.465 75.9971 103.074 74.8008 103.478 72.8485C103.599 72.2534 103.63 71.637 103.657 71.0268C104.049 62.249 104.428 53.4713 104.814 44.6936C104.862 44.1926 104.923 43.4851 104.972 42.632C105.045 41.3841 105.078 40.7465 105.002 39.9783C104.917 39.1251 104.856 38.4845 104.477 37.7345C104.164 37.1182 103.715 36.5686 103.129 36.098C101.404 34.7104 99.4762 34.4311 97.4905 35.4209C95.4138 36.4593 94.4361 38.2325 94.5363 40.5521C94.7488 45.486 94.9887 50.4199 95.2194 55.3538Z" fill="#C4C7D2"/>
  <path d="M138.836 57.6877C138.19 59.1177 136.438 60.6844 134.801 60.566C132.976 60.6328 132.029 59.1693 130.927 58.1583C125.119 52.8297 118.396 49.2591 110.791 47.3068C110.086 47.1277 109.373 46.9819 108.656 46.8574L108.963 38.7446C117.95 40.4388 126.102 44.0307 133.344 49.6842C134.886 50.8865 136.353 52.1951 137.765 53.5493C138.93 54.6696 139.55 56.1088 138.836 57.6877Z" fill="#C4C7D2"/>
  <path d="M90.5911 46.8655C84.2727 48.0071 78.5069 50.5332 73.2178 54.1676C71.0256 55.6736 68.9731 57.3496 67.1089 59.2563C65.7122 60.6864 64.1395 60.9475 62.6213 60.0822C60.7328 59.0104 59.7612 57.0824 60.2166 55.3122C60.3776 54.6929 60.8178 54.2678 61.255 53.8336C68.6604 46.4404 77.4806 41.6249 87.6763 39.3113C88.5416 39.114 89.413 38.9288 90.2814 38.7466L90.5911 46.8655Z" fill="#C4C7D2"/>
  <path d="M91.1152 60.7287C90.8662 60.8106 90.5839 60.8987 90.2651 60.9989C85.2796 62.5534 80.8285 65.0158 77.0787 68.7018C75.8096 69.9466 74.3734 70.7543 72.5122 69.8799C70.8575 69.1056 69.7979 67.375 69.8707 65.5623C69.898 64.8549 70.2077 64.3266 70.6723 63.8347C76.013 58.1813 82.6198 54.7351 90.0525 52.7616C90.3379 52.6857 90.5869 52.6219 90.8055 52.5703L91.1152 60.7287Z" fill="#C4C7D2"/>
  <path d="M129.342 66.4552C128.966 68.2678 127.69 69.4611 125.923 70.0896C124.694 70.5238 123.692 70.041 122.82 69.2576C121.068 67.691 119.298 66.1516 117.319 64.8703C114.465 63.0212 111.386 61.658 108.125 60.7775L108.435 52.6616C111.41 53.3144 114.276 54.3042 117.039 55.6098C120.847 57.4042 124.22 59.8393 127.384 62.5871C128.559 63.6072 129.691 64.7822 129.342 66.4552Z" fill="#C4C7D2"/>
  <path d="M119.511 75.7685C119.405 77.6266 118.3 78.744 116.73 79.5364C115.203 80.3076 113.973 79.7368 112.838 78.7136C111.235 77.2714 109.528 75.9901 107.582 75.1005L107.901 66.7266C111.207 67.8773 114.292 69.4379 116.949 71.794C117.237 72.0521 117.571 72.2616 117.872 72.5106C118.889 73.3516 119.615 74.3445 119.511 75.7685Z" fill="#C4C7D2"/>
  <path d="M91.6627 75.1079C89.6618 76.0521 87.831 77.2757 86.2005 78.7999C85.4809 79.474 84.7279 79.8656 83.8869 79.7381C81.7524 79.8414 80.7657 78.3931 79.9125 77.0177C79.1018 75.7121 79.5876 74.3853 80.875 73.0493C83.8201 70.004 87.418 68.076 91.3439 66.6763L91.6627 75.1079Z" fill="#C4C7D2"/>
  <path d="M99.8365 82.6095C96.5148 82.5853 93.8035 85.2268 93.7488 88.5393C93.6942 91.7516 96.4754 94.5935 99.712 94.6269C102.982 94.6634 105.736 91.949 105.772 88.6607C105.809 85.3361 103.158 82.6338 99.8365 82.6095Z" fill="#C4C7D2"/>
  <path d="M99.9994 180.105C78.603 180.105 58.485 171.774 43.3555 156.641C28.2259 141.512 19.8945 121.397 19.8945 99.9974C19.8945 78.5981 28.2259 58.4861 43.3585 43.3566C58.488 28.224 78.603 19.8926 99.9994 19.8926C121.396 19.8926 141.514 28.224 156.643 43.3566C171.773 58.4861 180.107 78.6041 180.107 100C180.107 121.397 171.776 141.515 156.643 156.644C141.511 171.774 121.396 180.108 99.9994 180.108V180.105ZM99.9994 24.7505C58.5093 24.7505 24.7525 58.5073 24.7525 99.9974C24.7525 141.487 58.5093 175.244 99.9994 175.244C141.489 175.244 175.246 141.487 175.246 99.9974C175.246 58.5073 141.492 24.7505 99.9994 24.7505Z" fill="#C4C7D2"/>
</svg>
