<svg xmlns="http://www.w3.org/2000/svg" width="200" height="200" viewBox="0 0 200 200" fill="none">
  <ellipse opacity="0.1" cx="100" cy="193.999" rx="100" ry="6" fill="#C4C7D2"/>
  <path fill-rule="evenodd" clip-rule="evenodd" d="M108.303 41.717C110.307 39.6071 110.221 36.272 108.111 34.2678L100.252 26.8024C98.1423 24.7982 94.8072 24.8838 92.803 26.9937C90.7987 29.1037 90.8844 32.4388 92.9943 34.443L100.853 41.9084C102.963 43.9126 106.299 43.8269 108.303 41.717ZM105.357 37.1679C105.865 37.6506 105.885 38.454 105.403 38.9622C104.92 39.4704 104.117 39.491 103.608 39.0083L95.7492 31.5429C95.241 31.0601 95.2203 30.2568 95.7031 29.7486C96.1858 29.2404 96.9892 29.2198 97.4974 29.7025L105.357 37.1679ZM46 42.0002C40.4772 42.0002 36 46.4774 36 52.0002V144C36 149.096 39.8121 153.302 44.7402 153.921V73.6291C44.7402 68.1062 49.2174 63.6291 54.7402 63.6291H131.407C136.93 63.6291 141.407 68.1062 141.407 73.6291V76.3216H147.621V67.5359C147.621 62.0131 143.144 57.5359 137.621 57.5359H108.042C104.241 57.5359 100.604 55.9911 97.966 53.2562L90.0561 45.0572C88.1715 43.1037 85.5737 42.0002 82.8593 42.0002H46ZM151.621 76.3216V67.5359C151.621 59.8039 145.353 53.5359 137.621 53.5359H108.042C105.327 53.5359 102.729 52.4325 100.845 50.479L92.9348 42.28C90.2963 39.5451 86.6594 38.0002 82.8593 38.0002H46C38.268 38.0002 32 44.2682 32 52.0002V144C32 151.732 38.268 158 46 158H80.0704C81.0959 172.531 93.2085 184 108 184C122.792 184 134.904 172.531 135.93 158H153.037C160.769 158 167.037 151.732 167.037 144V90.3216C167.037 82.5896 160.769 76.3216 153.037 76.3216H151.621ZM135.93 154L153.037 154C158.56 154 163.037 149.523 163.037 144V90.3216C163.037 84.7987 158.56 80.3216 153.037 80.3216H64.1996C58.6768 80.3216 54.1996 84.7988 54.1996 90.3216V154H80.0704C81.0958 139.47 93.2085 128 108 128C122.792 128 134.904 139.47 135.93 154ZM117.243 38.1808C114.334 38.218 112.005 40.6072 112.042 43.517C112.079 46.4269 114.469 48.7555 117.378 48.7182L128.217 48.5793C131.127 48.542 133.456 46.1529 133.418 43.2431C133.381 40.3332 130.992 38.0046 128.082 38.0419L117.243 38.1808ZM116.042 43.4658C116.033 42.7649 116.594 42.1894 117.295 42.1804L128.133 42.0415C128.834 42.0325 129.41 42.5934 129.419 43.2943C129.428 43.9952 128.867 44.5707 128.166 44.5797L117.327 44.7186C116.626 44.7275 116.051 44.1666 116.042 43.4658ZM84 156C84 142.745 94.7452 132 108 132C121.255 132 132 142.745 132 156C132 169.255 121.255 180 108 180C94.7452 180 84 169.255 84 156ZM103 143C103 140.239 105.239 138 108 138C110.761 138 113 140.239 113 143V155C113 157.761 110.761 160 108 160C105.239 160 103 157.761 103 155V143ZM108 142C107.448 142 107 142.448 107 143V155C107 155.552 107.448 156 108 156C108.552 156 109 155.552 109 155V143C109 142.448 108.552 142 108 142ZM108 174C105.239 174 103 171.761 103 169C103 166.239 105.239 164 108 164C110.761 164 113 166.239 113 169C113 171.761 110.761 174 108 174ZM107 169C107 169.552 107.448 170 108 170C108.552 170 109 169.552 109 169C109 168.448 108.552 168 108 168C107.448 168 107 168.448 107 169Z" fill="#C4C7D2"/>
</svg>
