<svg xmlns="http://www.w3.org/2000/svg" width="210" height="200" viewBox="0 0 210 200" fill="none">
    <path d="M103.312 111.494L52.3767 84.7359L38.0523 101.872C56.1215 111.422 74.1907 120.971 92.272 130.533L103.312 111.494ZM107.251 57.0323L56.1336 82.3849L105.966 108.574L155.896 82.3364L127.259 67.3575L107.251 57.0323ZM49.7954 81.8517L31.0112 64.0612C30.3204 63.2735 30.3932 62.0616 31.193 61.3587C31.3021 61.2617 31.4354 61.1769 31.5566 61.1042L88.6484 28.8075C89.5574 28.3227 90.6844 28.6621 91.1934 29.5467L107.227 51.6273L117.915 31.6069C118.412 30.6738 119.564 30.3102 120.497 30.8071L178.425 61.4314C178.594 61.5284 178.752 61.6374 178.897 61.7828C179.637 62.5342 179.625 63.7461 178.873 64.4853L161.713 81.3427L178.328 101.23C179.007 102.042 178.897 103.254 178.085 103.92C177.964 104.017 177.831 104.102 177.698 104.175L162.779 112.064V141.634C162.779 142.434 162.295 143.112 161.592 143.403L107.651 170.78C107.299 171.168 106.79 171.41 106.233 171.41C105.482 171.41 104.839 170.986 104.524 170.356L50.4862 143.331C49.8197 142.991 49.4319 142.325 49.4319 141.622V112.209L34.2348 104.175C34.1015 104.102 33.9682 104.017 33.847 103.92C33.0351 103.241 32.926 102.03 33.6047 101.23L49.7954 81.8517ZM104.27 54.1116L88.8423 33.037L35.471 63.3704L52.91 79.6097L104.27 54.1116ZM110.22 54.1359L128.095 63.4916L158.489 79.1613L174.329 63.6007L120.4 35.0729L110.22 54.1359ZM159.568 84.7359L108.632 111.494L119.673 130.521L173.892 101.86L159.568 84.7359Z" fill="#C4C7D2"/>
    <ellipse opacity="0.1" cx="100.556" cy="194" rx="100" ry="6" fill="#C4C7D2"/>

</svg>
