<svg xmlns="http://www.w3.org/2000/svg" width="200" height="200" viewBox="0 0 200 200" fill="none">
  <ellipse opacity="0.1" cx="100" cy="193.999" rx="100" ry="6" fill="#C4C7D2"/>
  <path d="M139.695 158.863C139.137 156.986 140.272 155.149 140.215 153.224C140.111 149.948 140.087 146.663 140.206 143.387C140.488 135.541 139.222 127.732 139.671 119.893C139.987 114.37 135.266 109.305 129.105 109.339C109.558 109.445 90.0106 109.457 70.4664 109.333C64.2634 109.293 59.6908 114.324 59.7546 120.054C59.9337 136.273 59.8062 152.499 59.8001 168.721C60.7869 169.344 61.7403 170.033 63.0215 170.428C63.0215 169.805 63.0215 169.292 63.0215 168.782C63.0215 154.478 63.0185 140.172 63.0215 125.868C63.0215 120.063 67.1326 115.93 72.9197 115.927C90.8121 115.918 108.705 115.924 126.594 115.927C127.247 115.927 127.915 115.927 128.549 116.061C133.374 117.069 136.441 120.846 136.444 125.786C136.453 139.917 136.444 154.044 136.444 168.175C136.444 168.57 136.471 168.964 136.438 169.356C136.362 170.227 136.544 170.625 137.464 170.045C138.35 169.487 139.27 168.983 140.175 168.454C139.935 165.263 140.634 162.045 139.686 158.863H139.695Z" fill="#C4C7D2"/>
  <path d="M86.4116 139.283C84.0646 139.283 82.2034 141.08 82.1761 143.366C82.1488 145.741 84.0009 147.681 86.3145 147.702C88.7009 147.726 90.5773 145.887 90.5834 143.518C90.5895 141.053 88.8436 139.283 86.4086 139.283H86.4116Z" fill="#C4C7D2"/>
  <path d="M113.117 139.283C110.667 139.265 108.9 141.014 108.891 143.467C108.882 145.85 110.725 147.702 113.105 147.702C115.431 147.702 117.295 145.796 117.295 143.421C117.295 141.126 115.452 139.301 113.114 139.283H113.117Z" fill="#C4C7D2"/>
  <path d="M89.6783 130.211C89.2593 130.326 88.8646 130.518 88.4578 130.669C85.5248 131.772 82.5978 132.895 79.6527 133.961C78.8997 134.234 78.5718 134.665 78.7206 135.424C78.8299 135.98 79.2337 136.201 80.0049 136.15C80.7852 135.861 81.7659 135.509 82.7405 135.142C85.3062 134.176 87.8657 133.195 90.4343 132.239C91.157 131.969 91.5608 131.51 91.3148 130.751C91.0416 129.907 90.3311 130.029 89.6783 130.211Z" fill="#C4C7D2"/>
  <path d="M119.847 133.972C116.577 132.781 113.325 131.534 110.064 130.313C109.782 130.207 109.484 130.143 109.347 130.103C108.637 130.076 108.23 130.28 108.121 130.844C107.996 131.491 108.276 131.95 108.889 132.183C112.311 133.471 115.73 134.758 119.155 136.036C119.832 136.288 120.506 136.3 120.736 135.45C120.937 134.716 120.609 134.251 119.844 133.975L119.847 133.972Z" fill="#C4C7D2"/>
  <path d="M102.222 157.242C100.573 157.2 98.9216 157.2 97.2698 157.242C96.6201 157.258 96.0705 157.549 96.0645 158.332C96.0614 159.11 96.5958 159.401 97.2516 159.447C98.0745 159.501 98.9003 159.459 99.7262 159.459C100.552 159.459 101.378 159.498 102.201 159.447C102.853 159.407 103.397 159.128 103.406 158.351C103.415 157.567 102.875 157.261 102.222 157.245V157.242Z" fill="#C4C7D2"/>
  <path d="M99.9994 180.105C78.603 180.105 58.485 171.774 43.3555 156.641C28.2259 141.512 19.8945 121.397 19.8945 99.9974C19.8945 78.5981 28.2259 58.4861 43.3585 43.3566C58.488 28.224 78.603 19.8926 99.9994 19.8926C121.396 19.8926 141.514 28.224 156.643 43.3566C171.773 58.4861 180.107 78.6041 180.107 100C180.107 121.397 171.776 141.515 156.643 156.644C141.511 171.774 121.396 180.108 99.9994 180.108V180.105ZM99.9994 24.7505C58.5093 24.7505 24.7525 58.5073 24.7525 99.9974C24.7525 141.487 58.5093 175.244 99.9994 175.244C141.489 175.244 175.246 141.487 175.246 99.9974C175.246 58.5073 141.492 24.7505 99.9994 24.7505Z" fill="#C4C7D2"/>
  <path d="M113.691 81.868V77.1938L125.411 58.73H129.441V65.1999H127.056L119.668 76.8922V77.1116H136.322V81.868H113.691ZM127.166 86.8027V80.4424L127.275 78.3726V58.73H132.841V86.8027H127.166Z" fill="#C4C7D2"/>
  <path d="M99.9084 87.4215C97.5507 87.4123 95.522 86.832 93.8223 85.6806C92.1317 84.5292 90.8295 82.8615 89.9157 80.6774C89.011 78.4934 88.5633 75.8662 88.5724 72.7957C88.5724 69.7344 89.0247 67.1254 89.9294 64.9688C90.8433 62.8122 92.1455 61.1719 93.836 60.0479C95.5357 58.9147 97.5599 58.3481 99.9084 58.3481C102.257 58.3481 104.276 58.9147 105.967 60.0479C107.667 61.181 108.974 62.8259 109.887 64.9825C110.801 67.13 111.254 69.7344 111.244 72.7957C111.244 75.8753 110.787 78.5071 109.874 80.6911C108.969 82.8752 107.671 84.5429 105.981 85.6943C104.29 86.8458 102.266 87.4215 99.9084 87.4215ZM99.9084 82.5005C101.517 82.5005 102.801 81.6918 103.76 80.0743C104.72 78.4568 105.195 76.0306 105.186 72.7957C105.186 70.6665 104.966 68.8937 104.528 67.4772C104.098 66.0608 103.486 64.9962 102.691 64.2834C101.905 63.5706 100.978 63.2143 99.9084 63.2143C98.3092 63.2143 97.0298 64.0139 96.0703 65.613C95.1108 67.2122 94.6265 69.6065 94.6173 72.7957C94.6173 74.9523 94.8321 76.7526 95.2616 78.1964C95.7002 79.6311 96.3171 80.7094 97.1121 81.4313C97.9071 82.1441 98.8392 82.5005 99.9084 82.5005Z" fill="#C4C7D2"/>
  <path d="M63.6777 81.868V77.1938L75.3975 58.73H79.4275V65.1999H77.0424L69.6541 76.8922V77.1116H86.3086V81.868H63.6777ZM77.1521 86.8027V80.4424L77.2617 78.3726V58.73H82.8269V86.8027H77.1521Z" fill="#C4C7D2"/>
</svg>
