<svg xmlns="http://www.w3.org/2000/svg" width="200" height="200" viewBox="0 0 200 200" fill="none">
  <ellipse opacity="0.1" cx="100" cy="193.999" rx="100" ry="6" fill="#C4C7D2"/>
  <path fill-rule="evenodd" clip-rule="evenodd" d="M143.253 32.7251C144.976 30.3799 148.274 29.8754 150.619 31.5983C152.964 33.3212 153.469 36.619 151.746 38.9643L145.328 47.7C143.605 50.0453 140.307 50.5498 137.962 48.8269C135.617 47.104 135.112 43.8061 136.835 41.4609L143.253 32.7251ZM148.251 34.8219C147.686 34.4069 146.891 34.5284 146.476 35.0933L140.059 43.829C139.644 44.3939 139.765 45.1883 140.33 45.6033C140.895 46.0183 141.69 45.8968 142.105 45.3319L148.522 36.5961C148.937 36.0312 148.816 35.2369 148.251 34.8219ZM48.2318 84.4855C48.2318 58.8685 68.9985 38.1017 94.6156 38.1017C120.233 38.1017 140.999 58.8685 140.999 84.4855C140.999 110.103 120.233 130.869 94.6156 130.869C68.9985 130.869 48.2318 110.103 48.2318 84.4855ZM94.6156 34.1017C66.7894 34.1017 44.2318 56.6593 44.2318 84.4855C44.2318 112.312 66.7894 134.869 94.6156 134.869C103.763 134.869 112.341 132.432 119.736 128.17L126.275 134.71C126.089 137.489 127.057 140.332 129.182 142.456L149.361 162.635C153.266 166.54 159.598 166.54 163.503 162.635L167.854 158.284C171.76 154.379 171.759 148.047 167.854 144.142L147.675 123.963C145.55 121.838 142.707 120.869 139.927 121.057L134.345 115.475C141.021 106.928 144.999 96.1712 144.999 84.4855C144.999 56.6593 122.442 34.1017 94.6156 34.1017ZM135.591 122.378L131.751 118.537C129.193 121.325 126.325 123.824 123.202 125.98L127.596 130.374C128.023 129.638 128.552 128.944 129.182 128.314L133.533 123.963C134.163 123.333 134.856 122.805 135.591 122.378ZM117.74 78.4301C118.728 77.9361 119.129 76.7348 118.635 75.7468C118.141 74.7588 116.939 74.3584 115.951 74.8524L100.259 82.6984C99.5817 83.0372 99.1537 83.7297 99.1537 84.4873C99.1537 85.2448 99.5817 85.9373 100.259 86.2761L115.951 94.1221C116.939 94.6161 118.141 94.2157 118.635 93.2277C119.129 92.2397 118.728 91.0384 117.74 90.5444L105.626 84.4873L117.74 78.4301ZM70.5946 75.7468C70.1007 76.7348 70.5011 77.9361 71.4891 78.4301L83.6034 84.4873L71.4891 90.5444C70.5011 91.0384 70.1007 92.2397 70.5946 93.2277C71.0886 94.2157 72.29 94.6161 73.2779 94.1221L88.97 86.2761C89.6475 85.9373 90.0755 85.2448 90.0755 84.4873C90.0755 83.7297 89.6475 83.0372 88.97 82.6984L73.2779 74.8524C72.29 74.3584 71.0886 74.7588 70.5946 75.7468ZM61.308 84.485C61.308 66.09 76.2201 51.1779 94.6151 51.1779C113.01 51.1779 127.922 66.09 127.922 84.485C127.922 102.88 113.01 117.792 94.6151 117.792C76.2201 117.792 61.308 102.88 61.308 84.485ZM94.6151 47.1779C74.0109 47.1779 57.308 63.8809 57.308 84.485C57.308 105.089 74.0109 121.792 94.6151 121.792C115.219 121.792 131.922 105.089 131.922 84.485C131.922 63.8809 115.219 47.1779 94.6151 47.1779ZM165.464 52.0961C164.58 49.3238 161.615 47.7935 158.843 48.6781L148.516 51.9734C145.744 52.858 144.214 55.8226 145.098 58.595C145.983 61.3673 148.947 62.8976 151.72 62.013L162.046 58.7178C164.819 57.8331 166.349 54.8685 165.464 52.0961ZM160.059 52.4888C160.727 52.2758 161.441 52.6444 161.654 53.3121C161.867 53.9799 161.498 54.694 160.83 54.9071L150.504 58.2023C149.836 58.4154 149.122 58.0468 148.909 57.379C148.696 56.7112 149.064 55.9971 149.732 55.7841L160.059 52.4888ZM30.5894 114.251C27.7955 115.065 26.1906 117.99 27.0047 120.784C27.8189 123.577 30.7438 125.182 33.5376 124.368L43.9444 121.336C46.7383 120.521 48.3432 117.597 47.5291 114.803C46.7149 112.009 43.7901 110.404 40.9962 111.218L30.5894 114.251ZM30.845 119.664C30.6489 118.992 31.0355 118.287 31.7084 118.091L42.1152 115.058C42.7882 114.862 43.4927 115.249 43.6888 115.922C43.8849 116.595 43.4983 117.299 42.8254 117.495L32.4186 120.528C31.7456 120.724 31.0411 120.337 30.845 119.664ZM41.1693 141.76C38.8685 139.978 38.4477 136.668 40.2294 134.367L46.8662 125.797C48.648 123.496 51.9576 123.075 54.2584 124.857C56.5593 126.639 56.9801 129.948 55.1983 132.249L48.5616 140.82C46.7798 143.12 43.4702 143.541 41.1693 141.76ZM43.392 136.816C42.9629 137.371 43.0642 138.168 43.6184 138.597C44.1726 139.026 44.9698 138.925 45.399 138.371L52.0358 129.8C52.4649 129.246 52.3636 128.449 51.8094 128.02C51.2552 127.59 50.458 127.692 50.0288 128.246L43.392 136.816Z" fill="#C4C7D2"/>
</svg>
